<svg xmlns="http://www.w3.org/2000/svg" xmlns:xlink="http://www.w3.org/1999/xlink" preserveAspectRatio="xMidYMid" width="15" height="16" viewBox="0 0 15 16">
  <defs>
    <style>
      .cls-1 {
        fill: #fff;
        fill-rule: evenodd;
      }
    </style>
  </defs>
  <path d="M12.857,9.600 L12.857,5.333 C12.857,2.388 10.459,-0.000 7.500,-0.000 C4.541,-0.000 2.143,2.388 2.143,5.333 L2.143,9.600 L-0.000,13.867 L4.875,13.867 C5.124,15.084 6.204,16.000 7.500,16.000 C8.796,16.000 9.876,15.084 10.124,13.867 L15.000,13.867 L12.857,9.600 ZM7.500,14.933 C6.801,14.933 6.213,14.487 5.991,13.867 L9.009,13.867 C8.787,14.487 8.199,14.933 7.500,14.933 ZM1.607,12.800 L3.214,9.600 L3.214,5.333 C3.214,2.977 5.133,1.067 7.500,1.067 C9.867,1.067 11.786,2.977 11.786,5.333 L11.786,9.600 L13.393,12.800 L1.607,12.800 Z" class="cls-1"/>
</svg>
