<svg xmlns="http://www.w3.org/2000/svg" xmlns:xlink="http://www.w3.org/1999/xlink" preserveAspectRatio="xMidYMid" width="14" height="12" viewBox="0 0 14 12">
  <defs>
    <style>
      .cls-1 {
        fill: #fff;
        fill-rule: evenodd;
      }
    </style>
  </defs>
  <path d="M13.300,6.667 L0.700,6.667 C0.313,6.667 -0.000,6.368 -0.000,6.000 C-0.000,5.632 0.313,5.333 0.700,5.333 L13.300,5.333 C13.687,5.333 14.000,5.632 14.000,6.000 C14.000,6.368 13.687,6.667 13.300,6.667 ZM13.300,1.333 L0.700,1.333 C0.313,1.333 -0.000,1.035 -0.000,0.667 C-0.000,0.298 0.313,-0.000 0.700,-0.000 L13.300,-0.000 C13.687,-0.000 14.000,0.298 14.000,0.667 C14.000,1.035 13.687,1.333 13.300,1.333 ZM0.700,10.667 L13.300,10.667 C13.687,10.667 14.000,10.965 14.000,11.333 C14.000,11.701 13.687,12.000 13.300,12.000 L0.700,12.000 C0.313,12.000 -0.000,11.701 -0.000,11.333 C-0.000,10.965 0.313,10.667 0.700,10.667 Z" class="cls-1"/>
</svg>
