<svg xmlns="http://www.w3.org/2000/svg" xmlns:xlink="http://www.w3.org/1999/xlink" preserveAspectRatio="xMidYMid" width="16" height="16" viewBox="0 0 16 16">
  <defs>
    <style>
      .cls-1 {
        fill: #fff;
        fill-rule: evenodd;
      }
    </style>
  </defs>
  <path d="M8.000,-0.000 L-0.000,4.500 C-0.000,5.640 -0.000,14.000 -0.000,14.000 C-0.000,15.104 0.895,16.000 2.000,16.000 L14.000,16.000 C15.104,16.000 16.000,15.104 16.000,14.000 C16.000,14.000 16.000,5.593 16.000,4.500 L8.000,-0.000 ZM1.000,14.000 L1.000,6.187 L5.533,9.804 L1.047,14.289 C1.019,14.197 1.000,14.101 1.000,14.000 ZM1.778,14.973 L6.371,10.380 L8.000,11.500 L9.629,10.380 L14.222,14.973 C14.150,14.989 1.849,14.989 1.778,14.973 ZM15.000,14.000 C15.000,14.101 14.980,14.197 14.952,14.289 L10.467,9.804 L15.000,6.187 L15.000,14.000 ZM8.000,10.328 L1.000,5.000 L7.990,1.165 L15.000,5.000 L8.000,10.328 Z" class="cls-1"/>
</svg>
