<svg xmlns="http://www.w3.org/2000/svg" xmlns:xlink="http://www.w3.org/1999/xlink" preserveAspectRatio="xMidYMid" width="16" height="16" viewBox="0 0 16 16">
  <defs>
    <style>
      .cls-1 {
        fill: #333;
        fill-rule: evenodd;
      }
    </style>
  </defs>
  <path d="M15.840,15.099 L11.713,11.042 C12.793,9.869 13.457,8.318 13.457,6.610 C13.457,2.959 10.446,-0.001 6.732,-0.001 C3.018,-0.001 0.007,2.959 0.007,6.610 C0.007,10.262 3.018,13.222 6.732,13.222 C8.337,13.222 9.809,12.667 10.965,11.745 L15.108,15.818 C15.310,16.017 15.637,16.017 15.840,15.818 C16.042,15.620 16.042,15.298 15.840,15.099 ZM6.732,12.205 C3.590,12.205 1.042,9.700 1.042,6.610 C1.042,3.520 3.590,1.016 6.732,1.016 C9.875,1.016 12.423,3.520 12.423,6.610 C12.423,9.700 9.875,12.205 6.732,12.205 Z" class="cls-1"/>
</svg>
